# xmcd
#
# Track frame offsets:
#	150
#	15236
#	28306
#	45934
#	59139
#	76027
#	89126
#	102648
#	122599
#	133731
#	146918
#	158278
#	176658
#	193819
#	210344
#	222099
#	236703
#	253977
#	278623
#	293681
#
# Disc length: 4133 seconds
#
# Revision: 1
# Processed by: cddbd v1.5.2PL0 Copyright (c) Steve Scherf et al.
# Submitted via: audiograbber 1.83.01
#
DISCID=24102314
DTITLE=Das Beste aus Stenkelfeld Folge 1 - CD 1
DYEAR=2011
DGENRE=Comedy
TTITLE0=Herbstmeisterschaft am Kreisliga Grill
TTITLE1=Sondertarife der Bahn
TTITLE2=Kieler Woche
TTITLE3=Die Großküche
TTITLE4=Zu Gast bei Jean-Jaques Gelee
TTITLE5=Bei der Steuerberatung
TTITLE6=Stadionwerbung
TTITLE7=Die Busfahrt
TTITLE8=Auf dem Postamt
TTITLE9=Schulprobleme
TTITLE10=Die Geschenkboutique
TTITLE11=100 Meisterwerke: Die Bahnhofstoilette
TTITLE12=Advent im Seniorenheim
TTITLE13=Die Schiffsbegrüßungsanlage
TTITLE14=Der Garten im Frühjahr
TTITLE15=Das neue Seminarangebot
TTITLE16=EDV-Expertenauslese
TTITLE17=100 Meisterwerke: Der Parkhauspfeiler
TTITLE18=Der Busführerschein
TTITLE19=Weihnachten im Autohaus Oertel
EXTD=JacksonD
EXTT0=
EXTT1=
EXTT2=
EXTT3=
EXTT4=
EXTT5=
EXTT6=
EXTT7=
EXTT8=
EXTT9=
EXTT10=
EXTT11=
EXTT12=
EXTT13=
EXTT14=
EXTT15=
EXTT16=
EXTT17=
EXTT18=
EXTT19=
PLAYORDER=
